PathFileType	4	(X/Y/Z)	C:\Users\italobelli\Desktop\GitHub\PTbot_officialCBL\Personal_Results\SHRUG01_noisy1.trc
DataRate	CameraRate	NumFrames	NumMarkers	Units	OrigDataRate	OrigDataStartFrame	OrigNumFrames
110.888889	110.888889	21	9	m	110.888889	1	500
Frame#	Time		gu		centelbow		EpL		centpxt8		centijc7		ij		ts		aa		ai
			X1	Y1	Z1	X2	Y2	Z2	X3	Y3	Z3	X4	Y4	Z4	X5	Y5	Z5	X6	Y6	Z6	X7	Y7	Z7	X8	Y8	Z8	X9	Y9	Z9

1	0	-0.078716	-0.010393	0.16801	-0.10814	-0.25076	0.208	-0.087399	-0.245	0.232	-0.046816	-0.15316	-0.008669	-0.046816	0.031938	-0.008669	0	0	0	-0.13878	0.031076	0.05847	-0.10481	0.028208	0.17276	-0.16058	-0.079952	0.067602
2	0.009018	-0.078718	-0.010421	0.16799	-0.10821	-0.2507	0.20798	-0.087472	-0.24495	0.23198	-0.046816	-0.15316	-0.008669	-0.046816	0.031938	-0.008669	0	0	0	-0.13881	0.031021	0.058477	-0.10481	0.02815	0.17276	-0.16059	-0.08001	0.067607
3	0.018036	-0.078721	-0.010447	0.16797	-0.10829	-0.25064	0.20796	-0.087543	-0.24489	0.23196	-0.046816	-0.15316	-0.008669	-0.046816	0.031938	-0.008669	0	0	0	-0.13884	0.030968	0.058484	-0.10482	0.028096	0.17276	-0.16061	-0.080065	0.067612
4	0.027054	-0.078723	-0.01047	0.16795	-0.10836	-0.25058	0.20795	-0.087614	-0.24484	0.23194	-0.046816	-0.15316	-0.008669	-0.046816	0.031938	-0.008669	0	0	0	-0.13887	0.030918	0.05849	-0.10482	0.028045	0.17276	-0.16062	-0.080118	0.067616
5	0.036072	-0.078726	-0.010492	0.16793	-0.10843	-0.25051	0.20794	-0.087684	-0.24478	0.23193	-0.046816	-0.15316	-0.008669	-0.046816	0.031938	-0.008669	0	0	0	-0.1389	0.030869	0.058495	-0.10482	0.027998	0.17276	-0.16063	-0.080168	0.06762
6	0.04509	-0.07873	-0.010511	0.16791	-0.1085	-0.25044	0.20793	-0.087753	-0.24471	0.23192	-0.046816	-0.15316	-0.008669	-0.046816	0.031938	-0.008669	0	0	0	-0.13893	0.030822	0.0585	-0.10482	0.027954	0.17275	-0.16065	-0.080216	0.067624
7	0.054108	-0.078733	-0.010528	0.16789	-0.10857	-0.25037	0.20793	-0.087821	-0.24464	0.23192	-0.046816	-0.15316	-0.008669	-0.046816	0.031938	-0.008669	0	0	0	-0.13895	0.030777	0.058504	-0.10483	0.027914	0.17275	-0.16066	-0.080261	0.067628
8	0.063126	-0.078737	-0.010543	0.16788	-0.10863	-0.25029	0.20793	-0.087888	-0.24457	0.23192	-0.046816	-0.15316	-0.008669	-0.046816	0.031938	-0.008669	0	0	0	-0.13898	0.030735	0.058508	-0.10483	0.027877	0.17275	-0.16067	-0.080304	0.067632
9	0.072144	-0.078741	-0.010556	0.16786	-0.1087	-0.25021	0.20793	-0.087955	-0.2445	0.23192	-0.046816	-0.15316	-0.008669	-0.046816	0.031938	-0.008669	0	0	0	-0.13901	0.030694	0.058511	-0.10483	0.027843	0.17275	-0.16068	-0.080344	0.067635
10	0.081162	-0.078745	-0.010567	0.16784	-0.10877	-0.25013	0.20794	-0.08802	-0.24442	0.23193	-0.046816	-0.15316	-0.008669	-0.046816	0.031938	-0.008669	0	0	0	-0.13903	0.030655	0.058514	-0.10483	0.027812	0.17274	-0.16069	-0.080382	0.067638
11	0.09018	-0.078749	-0.010576	0.16782	-0.10883	-0.25005	0.20795	-0.088085	-0.24434	0.23194	-0.046816	-0.15316	-0.008669	-0.046816	0.031938	-0.008669	0	0	0	-0.13905	0.030618	0.058516	-0.10483	0.027784	0.17274	-0.1607	-0.080417	0.067641
12	0.099198	-0.078754	-0.010584	0.16781	-0.1089	-0.24996	0.20797	-0.088149	-0.24426	0.23195	-0.046816	-0.15316	-0.008669	-0.046816	0.031938	-0.008669	0	0	0	-0.13908	0.030584	0.058517	-0.10483	0.027759	0.17274	-0.16071	-0.08045	0.067644
13	0.10822	-0.078758	-0.01059	0.16779	-0.10896	-0.24988	0.20799	-0.088212	-0.24418	0.23197	-0.046816	-0.15316	-0.008669	-0.046816	0.031938	-0.008669	0	0	0	-0.1391	0.030551	0.058518	-0.10483	0.027737	0.17273	-0.16071	-0.080481	0.067647
14	0.11723	-0.078763	-0.010594	0.16777	-0.10902	-0.24979	0.20801	-0.088275	-0.24409	0.23199	-0.046816	-0.15316	-0.008669	-0.046816	0.031938	-0.008669	0	0	0	-0.13912	0.03052	0.058519	-0.10483	0.027718	0.17273	-0.16072	-0.080509	0.067649
15	0.12625	-0.078769	-0.010596	0.16776	-0.10908	-0.2497	0.20804	-0.088336	-0.244	0.23201	-0.046816	-0.15316	-0.008669	-0.046816	0.031938	-0.008669	0	0	0	-0.13914	0.030492	0.058519	-0.10483	0.027702	0.17272	-0.16073	-0.080535	0.067652
16	0.13527	-0.078774	-0.010597	0.16774	-0.10914	-0.2496	0.20807	-0.088398	-0.24391	0.23204	-0.046816	-0.15316	-0.008669	-0.046816	0.031938	-0.008669	0	0	0	-0.13916	0.030465	0.058519	-0.10483	0.027688	0.17272	-0.16074	-0.080559	0.067654
17	0.14429	-0.078779	-0.010596	0.16772	-0.10921	-0.24951	0.2081	-0.088458	-0.24381	0.23207	-0.046816	-0.15316	-0.008669	-0.046816	0.031938	-0.008669	0	0	0	-0.13918	0.03044	0.058518	-0.10483	0.027677	0.17271	-0.16074	-0.08058	0.067656
18	0.15331	-0.078785	-0.010594	0.16771	-0.10926	-0.24941	0.20814	-0.088518	-0.24372	0.2321	-0.046816	-0.15316	-0.008669	-0.046816	0.031938	-0.008669	0	0	0	-0.1392	0.030418	0.058517	-0.10483	0.027668	0.17271	-0.16075	-0.0806	0.067658
19	0.16232	-0.078791	-0.01059	0.16769	-0.10932	-0.24931	0.20817	-0.088577	-0.24362	0.23214	-0.046816	-0.15316	-0.008669	-0.046816	0.031938	-0.008669	0	0	0	-0.13922	0.030397	0.058515	-0.10483	0.027662	0.1727	-0.16075	-0.080617	0.06766
20	0.17134	-0.078797	-0.010586	0.16768	-0.10938	-0.24921	0.20822	-0.088635	-0.24352	0.23218	-0.046816	-0.15316	-0.008669	-0.046816	0.031938	-0.008669	0	0	0	-0.13924	0.030378	0.058513	-0.10483	0.027658	0.1727	-0.16076	-0.080632	0.067662
21	0.18036	-0.078803	-0.010579	0.16767	-0.10944	-0.24911	0.20826	-0.088693	-0.24342	0.23222	-0.046816	-0.15316	-0.008669	-0.046816	0.031938	-0.008669	0	0	0	-0.13925	0.030362	0.058511	-0.10483	0.027657	0.17269	-0.16076	-0.080645	0.067663
